<svg width="33" height="32" viewBox="0 0 33 32" fill="none" xmlns="http://www.w3.org/2000/svg">
<path opacity="0.2" d="M16.2904 29.3334C23.6542 29.3334 29.6237 23.3639 29.6237 16.0001C29.6237 8.63628 23.6542 2.66675 16.2904 2.66675C8.92657 2.66675 2.95703 8.63628 2.95703 16.0001C2.95703 23.3639 8.92657 29.3334 16.2904 29.3334Z" fill="#007DE8"/>
<path d="M21.6237 15.0001H17.2904V10.6667C17.2904 10.1201 16.837 9.66675 16.2904 9.66675C15.7437 9.66675 15.2904 10.1201 15.2904 10.6667V15.0001H10.957C10.4104 15.0001 9.95703 15.4534 9.95703 16.0001C9.95703 16.5467 10.4104 17.0001 10.957 17.0001H15.2904V21.3334C15.2904 21.8801 15.7437 22.3334 16.2904 22.3334C16.837 22.3334 17.2904 21.8801 17.2904 21.3334V17.0001H21.6237C22.1704 17.0001 22.6237 16.5467 22.6237 16.0001C22.6237 15.4534 22.1704 15.0001 21.6237 15.0001Z" fill="#007DE8"/>
</svg>
