<svg width="16" height="16" viewBox="0 0 16 16" fill="none" xmlns="http://www.w3.org/2000/svg">
<g clip-path="url(#clip0_1454_4833)">
<path d="M15.5554 8.44433C15.5554 7.52789 15.3923 6.64922 15.0932 5.83633C14.8888 8.23144 13.6119 9.46167 12.2777 8.88878C11.0279 8.35189 11.8701 6.259 11.9323 5.26033C12.0372 3.56744 11.927 1.62967 8.85189 0.0185547C10.1297 2.463 8.99989 3.98167 7.815 4.07411C6.50034 4.17678 5.29634 2.94433 5.74078 0.944332C4.30167 2.00478 4.25989 3.78967 4.70389 4.94433C5.167 6.14789 4.68522 7.14789 3.55589 7.259C2.29367 7.38344 1.59234 5.90744 2.239 3.55544C1.11989 4.87322 0.444336 6.57989 0.444336 8.44433C0.444336 12.6172 3.827 15.9999 7.99989 15.9999C12.1728 15.9999 15.5554 12.6172 15.5554 8.44433Z" fill="#F4900C"/>
<path d="M12.6196 10.6662C12.6854 12.0368 11.4814 12.5742 10.8334 12.3146C9.89741 11.9399 10.1485 11.2964 9.90764 9.96305C9.66675 8.62972 8.74097 7.70394 7.37075 7.29639C8.37075 10.1111 6.81653 11.1484 6.00186 11.3337C5.16986 11.5231 4.33386 11.3333 4.2383 9.55283C3.26764 10.5191 2.66675 11.8559 2.66675 13.3333C2.66675 13.4968 2.67697 13.6577 2.69119 13.8177C4.05564 15.1662 5.92986 15.9999 8.00008 15.9999C10.0703 15.9999 11.9445 15.1662 13.309 13.8177C13.3232 13.6577 13.3334 13.4968 13.3334 13.3333C13.3334 12.3613 13.0739 11.4506 12.6196 10.6662Z" fill="#FFCC4D"/>
</g>
<defs>
<clipPath id="clip0_1454_4833">
<rect width="16" height="16" fill="white"/>
</clipPath>
</defs>
</svg>
