<svg width="117" height="26" viewBox="0 0 117 26" fill="none" xmlns="http://www.w3.org/2000/svg">
<path d="M34.1289 19.1616V16.4798L40.0775 9.82423H34.3483V7.19124H44.0026V9.84861L38.0296 16.5286H44.1489V19.1616H34.1289ZM50.0731 19.4297C49.1467 19.4297 48.3422 19.2835 47.6351 18.9909C46.9038 18.6984 46.3187 18.2595 45.8067 17.7232C45.3191 17.1868 44.9534 16.5286 44.7096 15.7728C44.4414 14.9927 44.3195 14.115 44.3195 13.1642C44.3195 12.2134 44.4414 11.3601 44.6852 10.6044C44.929 9.84861 45.2947 9.19036 45.7579 8.62963C46.2455 8.09328 46.8306 7.65445 47.5376 7.3619C48.2203 7.06934 49.0248 6.92307 49.9268 6.92307C50.902 6.92307 51.7553 7.09372 52.4623 7.43504C53.1693 7.75197 53.7544 8.21518 54.1932 8.77591C54.6321 9.33664 54.9734 9.9705 55.1684 10.7263C55.3878 11.4577 55.4853 12.2134 55.4853 13.0179V14.0419H47.8058V14.2125C47.8058 14.9927 48.0252 15.6022 48.4397 16.0654C48.8785 16.5286 49.5367 16.7724 50.4388 16.7724C51.1458 16.7724 51.7065 16.6261 52.1454 16.3336C52.6086 16.0654 52.9986 15.7241 53.3887 15.334L55.0709 17.4306C54.5345 18.0645 53.8519 18.5521 52.9986 18.8934C52.121 19.2591 51.1458 19.4297 50.0731 19.4297ZM50 9.40978C49.3173 9.40978 48.781 9.62919 48.3909 10.068C48.0008 10.5312 47.8058 11.1163 47.8058 11.8721V12.0428H51.9991V11.8477C51.9991 11.1163 51.8284 10.5312 51.5115 10.068C51.1702 9.62919 50.6826 9.40978 50 9.40978ZM63.945 17.1381H63.8231C63.7256 17.4794 63.5793 17.7719 63.3843 18.0401C63.1893 18.3327 62.9455 18.5765 62.6773 18.7715C62.3847 18.9909 62.0678 19.1372 61.7265 19.2591C61.3608 19.381 60.9951 19.4297 60.605 19.4297C59.0935 19.4297 57.9477 18.8934 57.1675 17.8207C56.4118 16.748 56.0217 15.1877 56.0217 13.1642C56.0217 11.1407 56.4118 9.58043 57.1675 8.53211C57.9477 7.45942 59.0935 6.92307 60.605 6.92307C61.3852 6.92307 62.0678 7.14248 62.6773 7.55693C63.2868 7.99576 63.6525 8.53211 63.8231 9.21474H63.945V2.31534H67.3094V19.1616H63.945V17.1381ZM61.7265 16.6992C62.3604 16.6992 62.8967 16.5286 63.3112 16.236C63.7256 15.9191 63.945 15.4803 63.945 14.9439V11.4089C63.945 10.8725 63.7256 10.4337 63.3112 10.1168C62.8967 9.82423 62.3604 9.65357 61.7265 9.65357C61.0926 9.65357 60.5563 9.87299 60.1418 10.3362C59.7274 10.775 59.5323 11.3845 59.5323 12.1403V14.2125C59.5323 14.9683 59.7274 15.5778 60.1418 16.0166C60.5563 16.4798 61.0926 16.6992 61.7265 16.6992ZM76.5249 17.1381H76.403C76.3054 17.4794 76.1592 17.7719 75.9641 18.0401C75.7691 18.3327 75.5253 18.5765 75.2571 18.7715C74.9646 18.9909 74.6476 19.1372 74.3063 19.2591C73.9406 19.381 73.5749 19.4297 73.1849 19.4297C71.6733 19.4297 70.5275 18.8934 69.7474 17.8207C68.9916 16.748 68.6015 15.1877 68.6015 13.1642C68.6015 11.1407 68.9916 9.58043 69.7474 8.53211C70.5275 7.45942 71.6733 6.92307 73.1849 6.92307C73.965 6.92307 74.6476 7.14248 75.2571 7.55693C75.8666 7.99576 76.2323 8.53211 76.403 9.21474H76.5249V2.31534H79.8892V19.1616H76.5249V17.1381ZM74.3063 16.6992C74.9402 16.6992 75.4765 16.5286 75.891 16.236C76.3054 15.9191 76.5249 15.4803 76.5249 14.9439V11.4089C76.5249 10.8725 76.3054 10.4337 75.891 10.1168C75.4765 9.82423 74.9402 9.65357 74.3063 9.65357C73.6725 9.65357 73.1361 9.87299 72.7216 10.3362C72.3072 10.775 72.1122 11.3845 72.1122 12.1403V14.2125C72.1122 14.9683 72.3072 15.5778 72.7216 16.0166C73.1361 16.4798 73.6725 16.6992 74.3063 16.6992ZM81.7664 7.19124H85.1308V9.21474H85.2527C85.4234 8.53211 85.8134 7.99576 86.3985 7.55693C87.008 7.14248 87.6907 6.92307 88.4708 6.92307C89.9823 6.92307 91.1282 7.45942 91.9083 8.53211C92.6641 9.58043 93.0541 11.1407 93.0541 13.1642C93.0541 15.1877 92.6641 16.748 91.9083 17.8207C91.1282 18.8934 89.9823 19.4297 88.4708 19.4297C88.0564 19.4297 87.6907 19.381 87.3493 19.2591C87.008 19.1372 86.6911 18.9909 86.3985 18.7715C86.1304 18.5765 85.8866 18.3327 85.6915 18.0401C85.4965 17.7719 85.3502 17.4794 85.2527 17.1381H85.1308V23.6962H81.7664V7.19124ZM87.3493 16.6992C87.9832 16.6992 88.5196 16.4798 88.934 16.0166C89.3485 15.5778 89.5679 14.9683 89.5679 14.2125V12.1403C89.5679 11.3845 89.3485 10.775 88.934 10.3362C88.5196 9.87299 87.9832 9.65357 87.3493 9.65357C86.7155 9.65357 86.1791 9.82423 85.7647 10.1168C85.3502 10.4337 85.1308 10.8725 85.1308 11.4089V14.9439C85.1308 15.4803 85.3502 15.9191 85.7647 16.236C86.1791 16.5286 86.7155 16.6992 87.3493 16.6992ZM103.172 19.1616C102.587 19.1616 102.075 18.9665 101.66 18.5765C101.27 18.2108 101.002 17.6988 100.904 17.0649H100.758C100.587 17.8451 100.197 18.4302 99.5635 18.8203C98.9296 19.2347 98.1738 19.4297 97.2718 19.4297C96.0528 19.4297 95.1508 19.1128 94.5169 18.4789C93.8587 17.8451 93.5417 16.9918 93.5417 15.9435C93.5417 14.7001 94.005 13.7737 94.9314 13.1398C95.8578 12.5304 97.1011 12.2378 98.6858 12.2378H100.563V11.482C100.563 10.8969 100.417 10.4337 100.1 10.0924C99.8073 9.75109 99.2953 9.58043 98.5883 9.58043C97.9057 9.58043 97.3937 9.72671 96.9793 10.0193C96.5892 10.3118 96.2722 10.6287 96.0041 10.9944L94.005 9.21474C94.4925 8.50773 95.102 7.94701 95.8334 7.53255C96.5648 7.1181 97.5644 6.92307 98.8321 6.92307C100.539 6.92307 101.806 7.28876 102.66 8.04452C103.513 8.77591 103.927 9.87299 103.927 11.287V16.5286H105.049V19.1616H103.172ZM98.5152 17.0893C99.0759 17.0893 99.5635 16.9674 99.9536 16.7236C100.368 16.4798 100.563 16.0898 100.563 15.5534V14.1394H98.9296C97.6131 14.1394 96.9549 14.5782 96.9549 15.4803V15.8216C96.9549 16.2604 97.0768 16.5773 97.3449 16.7724C97.6375 16.9674 98.0032 17.0893 98.5152 17.0893ZM113.143 7.19124H116.288L111.68 20.99C111.388 21.9165 110.949 22.5991 110.412 23.0379C109.852 23.4767 109.047 23.6962 108.023 23.6962H105.927V21.0876H108.169L108.584 19.7711L104.391 7.19124H107.755L109.51 12.7741L110.364 16.236H110.51L111.388 12.7741L113.143 7.19124Z" fill="#1D1C1C"/>
<path d="M3.23984 14.6765L6.77487 11.7509L6.43356 11.629C6.28728 11.5803 4.31254 10.8976 4.31254 10.8733C-0.758395 9.58114 -0.831533 1.56029 5.16582 0H23.1579C29.0577 0.536349 30.5205 6.16801 25.7177 10.4344C24.3281 11.6778 22.7191 12.8236 21.622 13.6769C24.4012 14.6521 28.3751 15.1884 28.0825 20.1862C27.9363 22.868 26.3028 24.6233 24.3281 24.9646L6.77487 24.989C0.241165 25.8179 -2.75751 19.2354 3.23984 14.6765ZM9.45661 9.508L17.2093 2.99868H5.1902C1.04569 6.63122 5.97035 9.23983 9.45661 9.508ZM18.8671 15.8954C16.2097 18.0164 13.333 20.3081 11.0413 22.0878L24.0843 21.9172C26.1078 21.5271 26.1566 18.504 24.7426 17.9677C22.8166 17.2363 20.8175 16.5781 18.8671 15.8954ZM6.82363 21.9415L24.3525 6.82626C26.2785 5.02218 22.9872 1.75532 20.9394 3.51065L3.80057 17.8458C1.28948 20.5275 4.77575 23.575 6.82363 21.9415Z" fill="#007DE8"/>
</svg>
